<svg width="818" height="100vh" viewBox="0 0 818 818" fill="none" xmlns="http://www.w3.org/2000/svg">
  <mask id="mask0_13480_11552" style="mask-type:alpha" maskUnits="userSpaceOnUse" x="0" y="0" width="818" height="818">
    <rect width="818" height="818" fill="url(#paint0_radial_13480_11552)" />
  </mask>
  <g mask="url(#mask0_13480_11552)">
    <circle cx="409" cy="409" r="50.5924" stroke="white" stroke-width="1.0651" />
    <circle cx="409" cy="409" r="101.717" stroke="white" stroke-width="1.0651" />
    <circle cx="409" cy="409" r="152.842" stroke="white" stroke-width="1.0651" />
    <circle cx="409" cy="409" r="203.967" stroke="white" stroke-width="1.0651" />
    <circle cx="409" cy="409" r="255.092" stroke="white" stroke-width="1.0651" />
    <circle cx="409" cy="409" r="306.217" stroke="white" stroke-width="1.0651" />
    <circle cx="409" cy="409" r="357.342" stroke="white" stroke-width="1.0651" />
    <circle cx="409" cy="409" r="408.467" stroke="white" stroke-width="1.0651" />
    <g filter="url(#filter0_d_13480_11552)">
      <rect x="371" y="371" width="76" height="76" rx="38" fill="#D1E9FF" />
      <rect x="372" y="372" width="74" height="74" rx="38" stroke="#175CD3" stroke-width="2" />
      <path d="M419.5 419.5L415.417 415.417M418.333 408.417C418.333 413.893 413.893 418.333 408.417 418.333C402.94 418.333 398.5 413.893 398.5 408.417C398.5 402.94 402.94 398.5 408.417 398.5C413.893 398.5 418.333 402.94 418.333 408.417Z" stroke="#175CD3" stroke-width="2" stroke-linecap="round" stroke-linejoin="round" />
    </g>
  </g>
  <defs>
    <filter id="filter0_d_13480_11552" x="351" y="353" width="116" height="116" filterUnits="userSpaceOnUse" color-interpolation-filters="sRGB">
      <feFlood flood-opacity="0" result="BackgroundImageFix" />
      <feColorMatrix in="SourceAlpha" type="matrix" values="0 0 0 0 0 0 0 0 0 0 0 0 0 0 0 0 0 0 127 0" result="hardAlpha" />
      <feOffset dy="2" />
      <feGaussianBlur stdDeviation="10" />
      <feComposite in2="hardAlpha" operator="out" />
      <feColorMatrix type="matrix" values="0 0 0 0 0.0627451 0 0 0 0 0.0941176 0 0 0 0 0.156863 0 0 0 0.07 0" />
      <feBlend mode="normal" in2="BackgroundImageFix" result="effect1_dropShadow_13480_11552" />
      <feBlend mode="normal" in="SourceGraphic" in2="effect1_dropShadow_13480_11552" result="shape" />
    </filter>
    <radialGradient id="paint0_radial_13480_11552" cx="0" cy="0" r="1" gradientUnits="userSpaceOnUse" gradientTransform="translate(409 409) rotate(90) scale(409 409)">
      <stop />
      <stop offset="1" stop-opacity="0" />
    </radialGradient>
  </defs>
</svg>